<svg version="1.2" xmlns="http://www.w3.org/2000/svg" viewBox="0 0 452 1024" width="452" height="1024"><style>.a{opacity:1}</style><path fill-rule="evenodd" class="a" d="m225.2 22.5c87.1-0.1 117 0.7 122.2 3.2 3.7 1.8 8.4 6.5 10.4 10.4 2.9 5.7 3.6 27.2 3.6 205.2h23.5c15 0 26.7 1.4 32.5 3.9 5.1 2.2 12.1 8.4 22.2 23.5l-1.3 662-6.8 14.3c-3.8 7.9-12 20-18.3 27-7.1 7.8-17.8 15.8-45.2 29h-284.1l-14.4-6.6c-7.9-3.7-20-11.9-26.9-18.2-7.6-7-15.9-18.4-29.1-45.4l-0.7-329.8c-0.6-309.9-0.4-330.2 3.9-338.8 2.5-5 8.7-11.7 13.7-15 8-5.3 12.4-6 60-5.9v-101c0.1-91.7 0.5-101.4 4.6-106.5 2.5-3 6.8-6.8 9.7-8.4 3.6-1.9 41.7-2.9 120.5-2.9zm-114.4 122.8l0.4 96h229.4l-1.3-194.1c-174-1.1-225.5-0.6-226.8 0.4-1.2 1-2 44.9-1.7 97.7zm102.5 295.4c-4.1 7.2-10 17.1-13.1 22.2l-5.6 9.1 24.8 2.6c1 176.7 0.7 228 0 228-0.7 0-16-11.7-33.9-26l-32.6-26.1c0-31.7 0.7-34 5.2-35.2 2.9-0.7 7-4.8 9.2-9.1 2.1-4.3 3.9-10.2 3.9-13 0-2.9-1.8-8.8-3.9-13.1-2.2-4.3-6.3-9-9.2-10.4-2.8-1.4-9.4-2.6-14.5-2.6-6.9 0-11.3 2-16.9 7.8-5 5.1-7.7 10.5-7.7 15.7 0 4.3 1.8 11.3 3.9 15.6 2.2 4.3 6.3 8.4 9.2 9.1 4.6 1.2 5.2 3.5 5.2 21.5v20.2l83.4 66.5c0 28.1-0.4 28.9-10.5 35.8-5.8 4-11.9 10.7-13.5 15-1.6 4.3-2.2 12.5-1.4 18.2 1.1 7.1 4.2 12.8 9.6 17.6 4.4 4 11.2 7.9 15.1 8.8 4 0.9 10.7 0.9 15 0.1 4.3-0.9 11.1-4.8 15.1-8.8 4.3-4.4 7.8-11.3 8.8-17.7 1.1-6.6 0.3-13.7-2-19.3-2.1-5.1-7.8-11.5-13.4-15l-9.8-6.1-0.1-79.4c49.6-40.6 68.4-55.9 73.9-60.1l9.8-7.7-0.2-40.4h15.6v-46.9h-46.9v46.9h15.7v33.9c-50.5 40.4-65.8 52.1-66.5 52.1-0.7 0-1-39.6-0.6-88l0.6-87.9 24.7-2.6c-31.6-54.6-32.7-55.9-35.7-50.3-1.7 3.3-6.5 11.8-10.7 19zm-8.3-324.5v49.6l-61.2-1.3-0.8-20.7c-0.4-11.3-0.1-22.2 0.6-24.1 1-2.6 8.7-3.5 61.4-3.5zm41.5 0h62.8v49.6l-61.3-1.3z"/></svg>